<?xml version="1.0" encoding="UTF-8"?> <svg xmlns="http://www.w3.org/2000/svg" width="1920" height="2666" viewBox="0 0 1920 2666" fill="none"><path d="M7.14391 1586.52L7.1434 1586.52C-31.8874 1583.29 -61.9057 1561.52 -76.4138 1533.72C-90.9165 1505.93 -89.9005 1472.2 -66.9966 1444.88L780.835 436.114C807.115 404.879 854.364 393.811 896.192 409.461L1923.02 793.666C1974.01 812.743 1999.2 864.48 1979.68 908.911L1648.97 1661.77C1633.6 1696.75 1594.11 1718.23 1551.15 1714.7L7.14391 1586.52Z" stroke="url(#paint0_linear_845_30654)" stroke-width="3"></path><path d="M681.554 221.168L681.554 221.168C661.375 205.09 655.63 180.63 661.709 157.858C667.792 135.072 685.712 114.041 712.798 105.057C712.799 105.057 712.799 105.057 712.8 105.057L1712.85 -225.352C1743.85 -235.58 1776.01 -225.292 1791.41 -200.467L2174.67 417.65C2193.42 447.89 2181.36 489.696 2147.29 510.819L1571.93 867.571C1545.13 884.187 1511.85 883.273 1489.6 865.566L681.554 221.168Z" stroke="url(#paint1_linear_845_30654)" stroke-opacity="0.93" stroke-width="3"></path><defs><linearGradient id="paint0_linear_845_30654" x1="-3973.25" y1="2207.92" x2="513.597" y2="3538.85" gradientUnits="userSpaceOnUse"><stop stop-color="#DA0B62"></stop><stop offset="0.395833" stop-color="#DA0B62"></stop><stop offset="0.8125" stop-color="#0D20DB"></stop><stop offset="0.968938" stop-color="#4848C2"></stop></linearGradient><linearGradient id="paint1_linear_845_30654" x1="464.157" y1="58.0675" x2="1886.98" y2="301.341" gradientUnits="userSpaceOnUse"><stop stop-color="#0BDA90"></stop><stop offset="0.578749" stop-color="#0D20DB"></stop><stop offset="0.96903" stop-color="#0BDA90"></stop></linearGradient></defs></svg> 