<?xml version="1.0" encoding="UTF-8"?> <svg xmlns="http://www.w3.org/2000/svg" width="234" height="313" viewBox="0 0 234 313" fill="none"><g opacity="0.04"><path d="M267.041 166.758C268.633 160.816 264.156 154.98 258.004 154.98H171.232C166.065 154.98 161.876 159.169 161.876 164.336V249.221C161.876 251.548 162.743 253.792 164.308 255.514L213.758 309.931C218.736 315.409 227.803 313.21 229.719 306.06L267.041 166.758Z" fill="white"></path><path d="M112.746 174.566C112.746 183.119 102.218 187.188 96.4666 180.858L2.43676 77.3841C-2.14365 72.3436 0.0237767 64.254 6.51053 62.1793L100.54 32.1041C106.577 30.1733 112.746 34.6776 112.746 41.0161V174.566Z" fill="white"></path><path d="M168.382 10.4053C164.506 11.6449 161.876 15.2478 161.876 19.3173V105.057C161.876 110.224 166.065 114.413 171.232 114.413H273.887C278.121 114.413 281.828 111.569 282.924 107.478L317.67 -22.2085C319.586 -29.3589 312.833 -35.7971 305.783 -33.5421L168.382 10.4053Z" fill="white"></path></g></svg> 